# xmcd CD database file generated by Grip 2.95
# 
# Track frame offsets:
#       150
#       24927
#       41829
#       62689
#       89925
#       117490
#       132850
#       151580
#       170894
#       210593
# 
# Disc length: 3057 seconds
# 
# Revision: 3
# Processed by: cddbd v1.4PL0 Copyright (c) Steve Scherf et al.
# Submitted via: Grip 2.95
# 
DISCID=8a0bef0a
DTITLE=Nigel Mack - Road Rage
DYEAR=1900
DGENRE=
TTITLE0=You Don't Love Me
TTITLE1=I Want to be Loved
TTITLE2=500 yds of Paradise
TTITLE3=Don't You Know That I Love You
TTITLE4=Its The Night
TTITLE5=Just What I Say
TTITLE6=Great River
TTITLE7=Rock Bottom
TTITLE8=The Sky Is Crying
TTITLE9=Who
EXTD=
EXTT0=
EXTT1=
EXTT2=
EXTT3=
EXTT4=
EXTT5=
EXTT6=
EXTT7=
EXTT8=
EXTT9=
PLAYORDER=
